<svg width="48" height="48" version="1" xmlns="http://www.w3.org/2000/svg">
 <rect x="4" y="31" width="40" height="9" rx="2.5" ry="2.5" opacity=".2"/>
 <path d="m6.5 7c-1.3706 0-2.5 1.1294-2.5 2.5v27c0 1.3706 1.1294 2.5 2.5 2.5h35c1.3706 0 2.5-1.1294 2.5-2.5v-23c0-1.3706-1.1294-2.5-2.5-2.5h-17.5c-3 0-3-4-7-4z" fill="#2ea9b7"/>
 <path d="m41.5 13c1.3706 0 2.5 1.1294 2.5 2.5v21c0 1.3706-1.1294 2.5-2.5 2.5h-35c-1.3706 0-2.5-1.1294-2.5-2.5v-18c0-1.3706 1.1294-2.5 2.5-2.5h10.5c4 0 3-3 7-3z" fill="#fff" opacity=".15"/>
 <path d="m24 13c-4 0-3 3-7 3h-10.5c-1.3706 0-2.5 1.1294-2.5 2.5v1c0-1.3706 1.1294-2.5 2.5-2.5h10.5c4 0 3-3 7-3h17.5c1.3706 0 2.5 1.1294 2.5 2.5v-1c0-1.3706-1.1294-2.5-2.5-2.5h-17.5z" style="fill:#fff;opacity:.2"/>
 <path d="m6.5 8c-1.3706 0-2.5 1.1294-2.5 2.5v7c0-1.3706 1.1294-2.5 2.5-2.5h10.5c4 0 3-3 7-3h17.5c1.3706 0 2.5 1.1294 2.5 2.5v-1c0-1.3706-1.1294-2.5-2.5-2.5h-17.5c-3 0-3-3-7-3h-10.5z" style="fill:#808080;opacity:.2"/>
 <path d="m24 12c-4 0-3 3-7 3h-10.5c-1.3706 0-2.5 1.1294-2.5 2.5v1c0-1.3706 1.1294-2.5 2.5-2.5h10.5c4 0 3-3 7-3h17.5c1.3706 0 2.5 1.1294 2.5 2.5v-1c0-1.3706-1.1294-2.5-2.5-2.5z" style="opacity:.25"/>
 <path d="m6.5 7c-1.3706 0-2.5 1.1294-2.5 2.5v1c0-1.3706 1.1294-2.5 2.5-2.5h10.5c4 0 4 3 7 3-3 0-3-4-7-4h-10.5z" style="fill:#fff;opacity:.2"/>
 <path d="m23.881 18.184a0.50005 0.50005 0 0 0-0.21289 0.11133l-7.6855 6.832a0.50005 0.50005 0 0 0 0.33203 0.87305h1.6855v6.5a0.50005 0.50005 0 0 0 0.5 0.5h3a0.50005 0.50005 0 0 0 0.5-0.5v-4.5h4v4.5a0.50005 0.50005 0 0 0 0.5 0.5h3a0.50005 0.50005 0 0 0 0.5-0.5v-6.5h1.6855a0.50005 0.50005 0 0 0 0.33203-0.87305l-7.6855-6.832a0.50005 0.50005 0 0 0-0.45117-0.11133z" style="opacity:.5"/>
</svg>
