<svg width="64" height="64" version="1" xmlns="http://www.w3.org/2000/svg">
 <rect x="4" y="43" width="56" height="9" rx="2.8" ry="2.8" opacity=".2"/>
 <path d="m6.8008 8c-1.5512 0-2.8008 1.2496-2.8008 2.8008v37.398c0 1.5512 1.2496 2.8008 2.8008 2.8008h50.398c1.5512 0 2.8008-1.2496 2.8008-2.8008v-32.398c0-1.5512-1.2496-2.8008-2.8008-2.8008h-27.199c-4 0-4-5-10-5z" style="fill:#2ea9b7"/>
 <path d="m6.8008 9c-1.5512 0-2.8008 1.2496-2.8008 2.8008v9c0-1.5512 1.2496-2.8008 2.8008-2.8008h15.199c4 0 4-3 10-3h25.199c1.5512 0 2.8008 1.2496 2.8008 2.8008v-1c0-1.5512-1.2496-2.8008-2.8008-2.8008h-27.199c-4 0-4-5-10-5z" style="fill:#808080;opacity:.2"/>
 <path d="m32 15c-6 0-6 3-10 3h-15.199c-1.5512 0-2.8008 1.2496-2.8008 2.8008v1c0-1.5512 1.2496-2.8008 2.8008-2.8008h15.199c4 0 4-3 10-3h25.199c1.5512 0 2.8008 1.2496 2.8008 2.8008v-1c0-1.5512-1.2496-2.8008-2.8008-2.8008z" style="opacity:.25"/>
 <path d="m6.8008 8c-1.5512 0-2.8008 1.2496-2.8008 2.8008v1c0-1.5512 1.2496-2.8008 2.8008-2.8008h13.199c6 0 6 5 10 5h27.199c1.5512 0 2.8008 1.2496 2.8008 2.8008v-1c0-1.5512-1.2496-2.8008-2.8008-2.8008h-27.199c-4 0-4-5-10-5z" style="fill:#fff;opacity:.2"/>
 <path d="m32 16c-6 0-6 3-10 3h-15.199c-1.5512 0-2.8008 1.2496-2.8008 2.8008v1c0-1.5512 1.2496-2.8008 2.8008-2.8008h15.199c4 0 4-3 10-3h25.199c1.5512 0 2.8008 1.2496 2.8008 2.8008v-1c0-1.5512-1.2496-2.8008-2.8008-2.8008z" style="fill:#fff;opacity:.2"/>
 <path d="m32 16c-6 0-6 3-10 3h-15.199c-1.5512 0-2.8008 1.2496-2.8008 2.8008v26.398c0 1.5512 1.2496 2.8008 2.8008 2.8008h50.398c1.5512 0 2.8008-1.2496 2.8008-2.8008v-29.398c0-1.5512-1.2496-2.8008-2.8008-2.8008z" style="fill:#fff;opacity:.15"/>
 <path d="m32 20c-2.77 0-5 2.23-5 5v4h-1c-2.216 0-4 1.784-4 4v6c0 2.216 1.784 4 4 4h12c2.216 0 4-1.784 4-4v-6c0-2.216-1.784-4-4-4h-1v-4c0-2.77-2.23-5-5-5zm0 2c1.662 0 3 1.338 3 3v4h-6v-4c0-1.662 1.338-3 3-3zm0 11c1.662 0 3 1.338 3 3s-1.338 3-3 3-3-1.338-3-3 1.338-3 3-3z" opacity=".5"/>
</svg>
